<?xml version="1.0" encoding="UTF-8" standalone="no"?>
<svg
   xmlns:dc="http://purl.org/dc/elements/1.1/"
   xmlns:cc="http://creativecommons.org/ns#"
   xmlns:rdf="http://www.w3.org/1999/02/22-rdf-syntax-ns#"
   xmlns:svg="http://www.w3.org/2000/svg"
   xmlns="http://www.w3.org/2000/svg"
   xmlns:sodipodi="http://sodipodi.sourceforge.net/DTD/sodipodi-0.dtd"
   xmlns:inkscape="http://www.inkscape.org/namespaces/inkscape"
   width="210mm"
   height="297mm"
   viewBox="0 0 210 297"
   version="1.1"
   id="svg875"
   inkscape:version="1.0.2 (e86c870879, 2021-01-15, custom)"
   sodipodi:docname="Ejercicio1.svg">
  <defs
     id="defs869" />
  <sodipodi:namedview
     id="base"
     pagecolor="#ffffff"
     bordercolor="#666666"
     borderopacity="1.0"
     inkscape:pageopacity="0.0"
     inkscape:pageshadow="2"
     inkscape:zoom="0.35"
     inkscape:cx="455.60045"
     inkscape:cy="265.86364"
     inkscape:document-units="mm"
     inkscape:current-layer="layer2"
     inkscape:document-rotation="0"
     showgrid="false"
     inkscape:window-width="958"
     inkscape:window-height="1008"
     inkscape:window-x="953"
     inkscape:window-y="0"
     inkscape:window-maximized="0" />
  <metadata
     id="metadata872">
    <rdf:RDF>
      <cc:Work
         rdf:about="">
        <dc:format>image/svg+xml</dc:format>
        <dc:type
           rdf:resource="http://purl.org/dc/dcmitype/StillImage" />
        <dc:title></dc:title>
      </cc:Work>
    </rdf:RDF>
  </metadata>
  <g
     inkscape:label="Capa 1"
     inkscape:groupmode="layer"
     id="layer1"
     style="display:inline">
    <ellipse
       style="fill:#ffffff;fill-opacity:1;stroke:#000000;stroke-width:7.60703;stroke-miterlimit:4;stroke-dasharray:none;stroke-opacity:1"
       id="path877"
       cx="100.81763"
       cy="93.659363"
       rx="59.205647"
       ry="58.53846" />
    <path
       style="fill:#ffff00;stroke:none;stroke-width:2.02031"
       d="M 345.99429,556.96378 C 314.09645,551.62801 276.80471,534.58861 250.14635,513.16879 200.48472,473.26603 173.4751,417.22996 173.4751,354.1012 c 0,-54.64849 19.53157,-102.67507 57.57869,-141.58141 28.44026,-29.08253 59.15038,-47.08442 98.99495,-58.02962 13.96885,-3.83721 21.09802,-4.42462 52.52793,-4.32811 33.66445,0.10337 37.71601,0.522 54.54824,5.63611 74.85303,22.74252 128.53864,78.38602 146.86974,152.22598 6.2685,25.25032 6.25385,66.96036 -0.0323,92.29058 -19.38424,78.10793 -82.30301,138.69815 -160.97947,155.02183 -19.43769,4.03291 -57.76436,4.84298 -76.98848,1.62722 z m 54.89865,-39.18932 c 15.23544,-8.92855 21.46231,-30.2298 13.29086,-45.46632 -11.35688,-21.17613 -38.8142,-26.82823 -56.19492,-11.56776 -25.66742,22.5363 -10.80903,61.91908 23.40014,62.02307 8.04422,0.0244 13.19921,-1.29417 19.50392,-4.98899 z m 6.93755,-103.323 c 0,-1.80915 4.54568,-40.87518 10.10152,-86.81343 5.55584,-45.93824 10.10153,-84.91464 10.10153,-86.61422 0,-2.68393 -6.12036,-3.09015 -46.55856,-3.09015 h -46.55857 l 1.13594,6.56599 c 1.27219,7.3535 19.24555,166.76098 19.24839,170.71578 10e-4,1.89071 6.60244,2.52539 26.26578,2.52539 22.91761,0 26.26397,-0.41912 26.26397,-3.28936 z"
       id="path1461"
       transform="scale(0.26458333)" />
    <path
       style="fill:#ffff00;stroke:none;stroke-width:2.02031;fill-opacity:1"
       d="m 367.05207,416.29029 -10.47385,-0.77173 -1.20518,-10.50563 c -0.66285,-5.77809 -4.80329,-42.32543 -9.20097,-81.2163 -4.39768,-38.89087 -8.56545,-74.26654 -9.26172,-78.61259 l -1.26593,-7.9019 44.93616,1.25603 c 24.71489,0.69081 45.28159,1.60145 45.70377,2.02363 0.7473,0.7473 -19.09707,173.53874 -20.01382,174.26699 -1.32532,1.05277 -30.17461,2.12786 -39.21846,1.4615 z"
       id="path1478"
       transform="scale(0.26458333)" />
    <path
       style="fill:#ffff00;stroke:none;stroke-width:2.02031"
       d="m 363.15864,516.92815 c -15.35727,-9.36458 -20.75008,-27.42699 -12.98061,-43.47657 2.45364,-5.06855 7.2267,-11.18478 10.6068,-13.59162 6.51792,-4.64117 22.07746,-7.13413 30.82459,-4.93874 8.08629,2.02953 20.96413,14.86187 23.53891,23.45574 4.18361,13.96365 -2.30759,30.70695 -14.87552,38.36972 -8.90298,5.42821 -28.35392,5.52331 -37.11417,0.18146 z"
       id="path1480"
       transform="scale(0.26458333)" />
    <rect
       style="fill:#ffff00;fill-opacity:1;stroke:#ffff00;stroke-width:5.88213;stroke-miterlimit:4;stroke-dasharray:none;stroke-opacity:1"
       id="rect1482"
       width="48.760937"
       height="76.362411"
       x="74.776527"
       y="59.274891" />
  </g>
  <g
     inkscape:groupmode="layer"
     id="layer2"
     inkscape:label="Capa 2"
     style="display:inline">
    <ellipse
       style="fill:#000000;fill-opacity:1;stroke:#ffff00;stroke-width:5.50894;stroke-miterlimit:4;stroke-dasharray:none;stroke-opacity:1"
       id="path1486"
       cx="99.424271"
       cy="126.68576"
       rx="12.005392"
       ry="12.539931" />
    <path
       style="fill:#000000;stroke:#000000;stroke-width:0.264583px;stroke-linecap:butt;stroke-linejoin:miter;stroke-opacity:1"
       d="m 93.399713,109.93928 h 11.904477 l 3.20724,-51.139985 H 87.129865 Z"
       id="path1488"
       sodipodi:nodetypes="ccccc" />
    <ellipse
       style="fill:#000000;fill-opacity:1;stroke:#000000;stroke-width:6.00001;stroke-miterlimit:4;stroke-dasharray:none;stroke-opacity:1"
       id="path1496"
       cx="101.6756"
       cy="162.15178"
       rx="23.8125"
       ry="0.37797621" />
    <ellipse
       style="display:inline;fill:#000000;fill-opacity:1;stroke:#000000;stroke-width:4.65131;stroke-miterlimit:4;stroke-dasharray:none;stroke-opacity:1"
       id="path1496-8"
       cx="101.86459"
       cy="171.60118"
       rx="18.250246"
       ry="0.29637799" />
  </g>
</svg>
